<svg xmlns="http://www.w3.org/2000/svg" version="1.1" xmlns:xlink="http://www.w3.org/1999/xlink" xmlns:svgjs="http://svgjs.dev/svgjs" viewBox="0 0 7.909891329926181 3.233444796723056"><g transform="matrix(1,0,0,1,3.220472584447893,0.46899162913075876)"><g><path d=" M 0.5865 0.15749999999999975 C 0.5865 0.19799999999999984 0.5655 0.24899999999999978 0.5445 0.30149999999999977 C 0.537 0.3194999999999998 0.531 0.3314999999999998 0.531 0.34199999999999986 C 0.531 0.3689999999999998 0.6 0.4049999999999998 0.624 0.4049999999999998 C 0.636 0.4049999999999998 0.6435 0.39449999999999985 0.6525 0.3809999999999998 C 0.6900000000000001 0.3194999999999998 0.7395 0.22949999999999982 0.7395 0.18599999999999983 C 0.7395 0.11099999999999977 0.5655 -2.220446049250313e-16 0.5025000000000001 -2.220446049250313e-16 C 0.3675 -2.220446049250313e-16 0.105 0.25049999999999983 0.105 0.41549999999999976 C 0.105 0.6134999999999998 0.45 0.6344999999999998 0.45 0.7649999999999998 C 0.45 0.8369999999999999 0.354 0.9599999999999999 0.267 0.9599999999999999 C 0.231 0.9599999999999999 0.1785 0.8879999999999998 0.1785 0.8549999999999998 C 0.1785 0.8159999999999998 0.20700000000000002 0.7574999999999998 0.20700000000000002 0.7379999999999998 C 0.20700000000000002 0.7169999999999999 0.1455 0.6764999999999999 0.129 0.6764999999999999 C 0.099 0.6764999999999999 0 0.7934999999999999 0 0.8384999999999998 C 0 0.9254999999999998 0.183 1.0649999999999997 0.3075 1.0649999999999997 C 0.462 1.0649999999999997 0.651 0.8549999999999998 0.651 0.7259999999999998 C 0.651 0.5744999999999998 0.306 0.5609999999999998 0.306 0.43049999999999977 C 0.306 0.3059999999999998 0.47100000000000003 0.11099999999999977 0.531 0.11099999999999977 C 0.5535 0.11099999999999977 0.5865 0.13649999999999984 0.5865 0.15749999999999975 M 1.066471435546875 0.9344999999999998 C 1.066471435546875 1.0019999999999998 1.192471435546875 1.0649999999999997 1.2599714355468752 1.0649999999999997 C 1.369471435546875 1.0649999999999997 1.456471435546875 0.9284999999999999 1.538971435546875 0.7784999999999997 C 1.538971435546875 0.7784999999999997 1.558471435546875 0.7439999999999998 1.558471435546875 0.7259999999999998 C 1.558471435546875 0.7079999999999997 1.526971435546875 0.6839999999999998 1.507471435546875 0.6839999999999998 C 1.487971435546875 0.6839999999999998 1.4744714355468749 0.7109999999999999 1.4744714355468749 0.7109999999999999 C 1.400971435546875 0.8459999999999999 1.3184714355468752 0.9614999999999998 1.2749714355468749 0.9614999999999998 C 1.261471435546875 0.9614999999999998 1.235971435546875 0.9389999999999998 1.235971435546875 0.9194999999999998 C 1.235971435546875 0.8399999999999999 1.3289714355468751 0.5474999999999998 1.3289714355468751 0.47699999999999976 C 1.3289714355468751 0.42149999999999976 1.2464714355468751 0.35999999999999976 1.202971435546875 0.35999999999999976 C 1.112971435546875 0.35999999999999976 0.988471435546875 0.4604999999999998 0.988471435546875 0.4604999999999998 C 0.988471435546875 0.4604999999999998 1.030471435546875 0.31799999999999984 1.066471435546875 0.19199999999999984 C 1.069471435546875 0.17999999999999983 1.073971435546875 0.1649999999999998 1.073971435546875 0.15449999999999975 C 1.073971435546875 0.12899999999999978 0.973471435546875 0.07499999999999984 0.944971435546875 0.07499999999999984 C 0.932971435546875 0.07499999999999984 0.919471435546875 0.08399999999999985 0.913471435546875 0.10649999999999982 C 0.8699714355468751 0.23999999999999977 0.6884714355468751 0.9314999999999998 0.6884714355468751 0.9854999999999998 C 0.6884714355468751 1.0259999999999998 0.776971435546875 1.0649999999999997 0.812971435546875 1.0649999999999997 C 0.833971435546875 1.0649999999999997 0.838471435546875 1.0499999999999998 0.844471435546875 1.0304999999999997 C 0.853471435546875 0.9839999999999998 0.913471435546875 0.7379999999999998 0.953971435546875 0.6104999999999998 C 0.973471435546875 0.5459999999999998 1.060471435546875 0.4904999999999998 1.096471435546875 0.4904999999999998 C 1.115971435546875 0.4904999999999998 1.1414714355468751 0.5159999999999998 1.1414714355468751 0.5414999999999998 C 1.1414714355468751 0.5984999999999998 1.066471435546875 0.8384999999999998 1.066471435546875 0.9344999999999998 M 2.254442138671875 0.7784999999999997 C 2.254442138671875 0.7784999999999997 2.275442138671875 0.7439999999999998 2.275442138671875 0.7259999999999998 C 2.275442138671875 0.7079999999999997 2.242442138671875 0.6839999999999998 2.221442138671875 0.6839999999999998 C 2.2034421386718748 0.6839999999999998 2.189942138671875 0.7109999999999999 2.189942138671875 0.7109999999999999 C 2.189942138671875 0.7109999999999999 2.119442138671875 0.8579999999999999 2.012942138671875 0.8579999999999999 C 1.997942138671875 0.8579999999999999 1.985942138671875 0.8564999999999998 1.973942138671875 0.8519999999999999 C 2.021942138671875 0.7529999999999999 2.0519421386718752 0.6419999999999998 2.0519421386718752 0.5624999999999998 C 2.0519421386718752 0.4694999999999998 1.888442138671875 0.35999999999999976 1.7729421386718751 0.35999999999999976 C 1.612442138671875 0.35999999999999976 1.463942138671875 0.6494999999999997 1.463942138671875 0.8579999999999999 C 1.463942138671875 0.9659999999999999 1.636442138671875 1.0649999999999997 1.741442138671875 1.0649999999999997 C 1.804442138671875 1.0649999999999997 1.862942138671875 1.0199999999999998 1.912442138671875 0.9539999999999998 C 1.933442138671875 0.9554999999999998 1.954442138671875 0.9554999999999998 1.972442138671875 0.9554999999999998 C 2.162942138671875 0.9554999999999998 2.254442138671875 0.7784999999999997 2.254442138671875 0.7784999999999997 M 1.643942138671875 0.8939999999999998 C 1.643942138671875 0.7259999999999998 1.766942138671875 0.47099999999999986 1.843442138671875 0.47099999999999986 C 1.8734421386718751 0.47099999999999986 1.913942138671875 0.4979999999999998 1.913942138671875 0.5309999999999998 C 1.913942138671875 0.6029999999999998 1.883942138671875 0.7049999999999998 1.846442138671875 0.7904999999999998 C 1.811942138671875 0.7964999999999998 1.750442138671875 0.8579999999999999 1.750442138671875 0.8879999999999998 C 1.750442138671875 0.9014999999999999 1.757942138671875 0.9119999999999998 1.769942138671875 0.9209999999999998 C 1.748942138671875 0.9464999999999998 1.727942138671875 0.9614999999999998 1.711442138671875 0.9614999999999998 C 1.681442138671875 0.9614999999999998 1.643942138671875 0.9314999999999998 1.643942138671875 0.8939999999999998 M 2.335412109375 0.8729999999999998 C 2.335412109375 0.8234999999999998 2.372912109375 0.6989999999999998 2.402912109375 0.6149999999999998 C 2.425412109375 0.5489999999999998 2.518412109375 0.4784999999999998 2.555912109375 0.4784999999999998 C 2.579912109375 0.4784999999999998 2.612912109375 0.5084999999999998 2.612912109375 0.5384999999999998 C 2.612912109375 0.5954999999999998 2.588912109375 0.7004999999999998 2.555912109375 0.7919999999999998 C 2.549912109375 0.7919999999999998 2.543912109375 0.7904999999999998 2.537912109375 0.7904999999999998 C 2.5049121093749998 0.7904999999999998 2.441912109375 0.8519999999999999 2.441912109375 0.8834999999999998 C 2.441912109375 0.8999999999999998 2.459912109375 0.9134999999999998 2.486912109375 0.9254999999999998 C 2.473412109375 0.9419999999999998 2.453912109375 0.9554999999999998 2.438912109375 0.9554999999999998 C 2.389412109375 0.9554999999999998 2.335412109375 0.9134999999999998 2.335412109375 0.8729999999999998 M 2.648912109375 0.9539999999999998 C 2.648912109375 0.9539999999999998 2.686412109375 0.9554999999999998 2.7044121093749998 0.9554999999999998 C 2.894912109375 0.9554999999999998 2.986412109375 0.7784999999999997 2.986412109375 0.7784999999999997 C 2.986412109375 0.7784999999999997 3.007412109375 0.7439999999999998 3.007412109375 0.7259999999999998 C 3.007412109375 0.7079999999999997 2.974412109375 0.6839999999999998 2.953412109375 0.6839999999999998 C 2.935412109375 0.6839999999999998 2.921912109375 0.7109999999999999 2.921912109375 0.7109999999999999 C 2.921912109375 0.7109999999999999 2.851412109375 0.8579999999999999 2.744912109375 0.8579999999999999 C 2.729912109375 0.8579999999999999 2.705912109375 0.8519999999999999 2.705912109375 0.8519999999999999 C 2.7629121093749998 0.7349999999999999 2.789912109375 0.6074999999999998 2.789912109375 0.5204999999999999 C 2.789912109375 0.44399999999999984 2.678912109375 0.35999999999999976 2.612912109375 0.35999999999999976 C 2.525912109375 0.35999999999999976 2.437412109375 0.4484999999999998 2.437412109375 0.4484999999999998 C 2.437412109375 0.4484999999999998 2.357912109375 0.35999999999999976 2.332412109375 0.35999999999999976 C 2.311412109375 0.35999999999999976 2.288912109375 0.37049999999999983 2.284412109375 0.39149999999999985 C 2.228912109375 0.5849999999999997 2.048912109375 1.287 2.048912109375 1.3394999999999997 C 2.048912109375 1.3784999999999998 2.1299121093749998 1.416 2.167412109375 1.416 C 2.191412109375 1.416 2.2004121093749998 1.4024999999999999 2.204912109375 1.3829999999999998 C 2.215412109375 1.311 2.288912109375 0.9959999999999998 2.288912109375 0.9959999999999998 C 2.288912109375 0.9959999999999998 2.366912109375 1.0649999999999997 2.482412109375 1.0649999999999997 C 2.543912109375 1.0649999999999997 2.603912109375 1.0124999999999997 2.648912109375 0.9539999999999998 M 3.169453125 0.5504999999999998 C 3.169453125 0.6314999999999998 3.203953125 0.7439999999999998 3.203953125 0.8519999999999999 C 3.203953125 0.9059999999999998 3.1649531250000003 0.9584999999999998 3.113953125 0.9584999999999998 C 3.073453125 0.9584999999999998 3.025453125 0.8804999999999998 3.025453125 0.8054999999999999 C 3.025453125 0.7559999999999998 3.169453125 0.5504999999999998 3.169453125 0.5504999999999998 M 3.332953125 0.9359999999999998 C 3.332953125 0.9359999999999998 3.379453125 0.8714999999999998 3.379453125 0.8144999999999998 C 3.379453125 0.7019999999999997 3.322453125 0.5714999999999998 3.322453125 0.4259999999999998 C 3.322453125 0.3989999999999998 3.232453125 0.3404999999999998 3.2129531250000003 0.3404999999999998 C 3.191953125 0.3404999999999998 3.173953125 0.3584999999999998 3.1649531250000003 0.3749999999999998 C 3.113953125 0.45899999999999985 2.969953125 0.6794999999999998 2.969953125 0.6794999999999998 C 2.969953125 0.6794999999999998 2.845453125 0.7379999999999998 2.845453125 0.8114999999999998 C 2.845453125 0.9044999999999999 3.002953125 1.0649999999999997 3.1529531250000002 1.0649999999999997 C 3.377953125 1.0649999999999997 3.523453125 0.9284999999999999 3.605953125 0.7784999999999997 C 3.605953125 0.7784999999999997 3.625453125 0.7439999999999998 3.625453125 0.7259999999999998 C 3.625453125 0.7079999999999997 3.593953125 0.6839999999999998 3.5744531250000002 0.6839999999999998 C 3.554953125 0.6839999999999998 3.5414531250000003 0.7109999999999999 3.5414531250000003 0.7109999999999999 C 3.467953125 0.8459999999999999 3.397453125 0.9059999999999998 3.332953125 0.9359999999999998 M 4.157975830078125 0.4754999999999998 C 4.159475830078125 0.4664999999999998 4.163975830078125 0.44999999999999984 4.163975830078125 0.4394999999999998 C 4.163975830078125 0.41249999999999976 4.064975830078125 0.35999999999999976 4.036475830078125 0.35999999999999976 C 4.022975830078125 0.35999999999999976 4.0094758300781255 0.3674999999999998 4.003475830078125 0.38849999999999985 C 3.985475830078125 0.44999999999999984 3.9449758300781252 0.6569999999999998 3.8984758300781253 0.7664999999999997 C 3.878975830078125 0.8129999999999998 3.788975830078125 0.9464999999999998 3.728975830078125 0.9464999999999998 C 3.715475830078125 0.9464999999999998 3.6884758300781253 0.9239999999999998 3.6884758300781253 0.9044999999999999 C 3.6884758300781253 0.8414999999999998 3.785975830078125 0.5129999999999998 3.7949758300781253 0.4754999999999998 C 3.797975830078125 0.4664999999999998 3.800975830078125 0.44999999999999984 3.800975830078125 0.4394999999999998 C 3.800975830078125 0.41249999999999976 3.7019758300781254 0.35999999999999976 3.673475830078125 0.35999999999999976 C 3.659975830078125 0.35999999999999976 3.647975830078125 0.3674999999999998 3.6404758300781253 0.38849999999999985 C 3.6059758300781253 0.4814999999999998 3.508475830078125 0.8489999999999998 3.508475830078125 0.9194999999999998 C 3.508475830078125 0.9824999999999998 3.625475830078125 1.0649999999999997 3.703475830078125 1.0649999999999997 C 3.7604758300781254 1.0649999999999997 3.826475830078125 0.9989999999999998 3.883475830078125 0.9329999999999998 C 3.883475830078125 0.9329999999999998 3.8639758300781253 1.0034999999999998 3.8399758300781253 1.0844999999999998 C 3.6749758300781252 1.1834999999999998 3.5384758300781254 1.275 3.5384758300781254 1.3695 C 3.5384758300781254 1.4204999999999999 3.650975830078125 1.515 3.730475830078125 1.515 C 3.788975830078125 1.515 3.8744758300781252 1.4879999999999998 3.8999758300781253 1.4385 C 3.919475830078125 1.398 3.964475830078125 1.2434999999999998 4.0109758300781255 1.0679999999999998 C 4.130975830078125 0.9989999999999998 4.259975830078125 0.9254999999999998 4.340975830078126 0.7784999999999997 C 4.340975830078126 0.7784999999999997 4.3604758300781254 0.7439999999999998 4.3604758300781254 0.7259999999999998 C 4.3604758300781254 0.7079999999999997 4.327475830078125 0.6839999999999998 4.309475830078125 0.6839999999999998 C 4.2914758300781255 0.6839999999999998 4.276475830078125 0.7109999999999999 4.276475830078125 0.7109999999999999 C 4.219475830078125 0.8204999999999998 4.132475830078125 0.8999999999999998 4.037975830078125 0.9644999999999998 L 4.046975830078125 0.9329999999999998 C 4.097975830078125 0.7334999999999998 4.145975830078125 0.5369999999999998 4.157975830078125 0.4754999999999998 M 3.755975830078125 1.3469999999999998 C 3.740975830078125 1.3784999999999998 3.694475830078125 1.398 3.671975830078125 1.398 C 3.6524758300781253 1.398 3.632975830078125 1.3754999999999997 3.632975830078125 1.3575 C 3.632975830078125 1.3155 3.704975830078125 1.2584999999999997 3.808475830078125 1.1909999999999998 C 3.787475830078125 1.2599999999999998 3.767975830078125 1.3215 3.755975830078125 1.3469999999999998" fill="#ffffff" fill-rule="nonzero"></path></g><g><path d=" M 0.28961538461538466 1.9718076923076922 Q 0.28269230769230774 1.9637307692307693 0.2711538461538462 1.9562307692307692 Q 0.25961538461538464 1.9487307692307692 0.2451923076923077 1.942673076923077 Q 0.23076923076923078 1.9366153846153846 0.21375000000000002 1.9328653846153845 Q 0.19673076923076924 1.9291153846153846 0.1782692307692308 1.9291153846153846 Q 0.13096153846153846 1.9291153846153846 0.10846153846153847 1.947 Q 0.08596153846153846 1.9648846153846153 0.08596153846153846 1.9960384615384614 Q 0.08596153846153846 2.0179615384615386 0.0975 2.030653846153846 Q 0.10903846153846154 2.0433461538461537 0.13298076923076924 2.051423076923077 Q 0.15692307692307694 2.0595 0.19384615384615386 2.0681538461538462 Q 0.23653846153846156 2.077384615384615 0.26769230769230773 2.090653846153846 Q 0.2988461538461539 2.103923076923077 0.3155769230769231 2.1261346153846152 Q 0.33230769230769236 2.1483461538461537 0.33230769230769236 2.1852692307692307 Q 0.33230769230769236 2.2146923076923075 0.3210576923076923 2.236326923076923 Q 0.30980769230769234 2.2579615384615384 0.28961538461538466 2.272096153846154 Q 0.26942307692307693 2.286230769230769 0.24230769230769234 2.292865384615385 Q 0.2151923076923077 2.2995 0.18346153846153848 2.2995 Q 0.1523076923076923 2.2995 0.12259615384615385 2.292865384615385 Q 0.0928846153846154 2.286230769230769 0.06634615384615385 2.2735384615384615 Q 0.039807692307692315 2.260846153846154 0.016730769230769233 2.241807692307692 L 0.041538461538461545 2.1979615384615383 Q 0.050769230769230775 2.2077692307692307 0.06548076923076923 2.2172884615384616 Q 0.0801923076923077 2.2268076923076925 0.0989423076923077 2.2348846153846154 Q 0.11769230769230771 2.2429615384615382 0.13961538461538464 2.2478653846153844 Q 0.16153846153846155 2.2527692307692306 0.18461538461538463 2.2527692307692306 Q 0.2284615384615385 2.2527692307692306 0.2526923076923077 2.236903846153846 Q 0.27692307692307694 2.2210384615384617 0.27692307692307694 2.1904615384615385 Q 0.27692307692307694 2.1673846153846155 0.2633653846153846 2.1535384615384614 Q 0.24980769230769234 2.139692307692308 0.2232692307692308 2.1304615384615384 Q 0.19673076923076924 2.121230769230769 0.15865384615384617 2.112 Q 0.11711538461538462 2.1016153846153847 0.08884615384615385 2.0892115384615386 Q 0.060576923076923084 2.076807692307692 0.0464423076923077 2.0566153846153847 Q 0.03230769230769231 2.036423076923077 0.03230769230769231 2.0041153846153845 Q 0.03230769230769231 1.9648846153846153 0.051346153846153854 1.9377692307692307 Q 0.07038461538461539 1.910653846153846 0.10384615384615385 1.8968076923076922 Q 0.13730769230769233 1.8829615384615384 0.17942307692307694 1.8829615384615384 Q 0.20711538461538465 1.8829615384615384 0.23105769230769233 1.888730769230769 Q 0.255 1.8944999999999999 0.2757692307692308 1.9048846153846153 Q 0.2965384615384616 1.9152692307692307 0.3138461538461539 1.9296923076923076 L 0.28961538461538466 1.9718076923076922 M 0.39808199368990393 2.2954615384615384 L 0.39808199368990393 1.9943076923076923 L 0.44885122445913467 1.9943076923076923 L 0.44885122445913467 2.2954615384615384 L 0.39808199368990393 2.2954615384615384 M 0.39808199368990393 1.9377692307692307 L 0.39808199368990393 1.8743076923076922 L 0.44885122445913467 1.8743076923076922 L 0.44885122445913467 1.9377692307692307 L 0.39808199368990393 1.9377692307692307 M 0.7978784179687501 2.2954615384615384 L 0.7471091871995192 2.2954615384615384 L 0.7471091871995192 2.127 Q 0.7471091871995192 2.0791153846153847 0.7323976487379809 2.0569038461538462 Q 0.7176861102764424 2.034692307692308 0.6876861102764424 2.034692307692308 Q 0.6669168795072116 2.034692307692308 0.6464361102764424 2.0450769230769232 Q 0.6259553410456732 2.0554615384615382 0.6100899564302885 2.0730576923076924 Q 0.594224571814904 2.090653846153846 0.587301494891827 2.113730769230769 L 0.587301494891827 2.2954615384615384 L 0.5365322641225962 2.2954615384615384 L 0.5365322641225962 1.9943076923076923 L 0.5826861102764423 1.9943076923076923 L 0.5826861102764423 2.058923076923077 Q 0.594801494891827 2.037576923076923 0.6138399564302885 2.022 Q 0.6328784179687501 2.0064230769230766 0.6571091871995193 1.9977692307692307 Q 0.6813399564302886 1.9891153846153846 0.7078784179687501 1.9891153846153846 Q 0.7338399564302885 1.9891153846153846 0.7514361102764424 1.9986346153846153 Q 0.7690322641225962 2.008153846153846 0.7791284179687501 2.025173076923077 Q 0.7892245718149039 2.0421923076923076 0.793551494891827 2.0652692307692306 Q 0.7978784179687501 2.0883461538461536 0.7978784179687501 2.1154615384615383 L 0.7978784179687501 2.2954615384615384 M 1.0159708345853367 2.301230769230769 Q 0.9819323730468752 2.301230769230769 0.953951603816106 2.288826923076923 Q 0.9259708345853367 2.276423076923077 0.9054900653545674 2.2545 Q 0.8850092961237982 2.2325769230769232 0.8737592961237982 2.204307692307692 Q 0.8625092961237982 2.1760384615384614 0.8625092961237982 2.1443076923076925 Q 0.8625092961237982 2.1016153846153847 0.8815477576622598 2.0664230769230767 Q 0.9005862192007213 2.031230769230769 0.935201603816106 2.010173076923077 Q 0.9698169884314906 1.9891153846153846 1.0153939115084136 1.9891153846153846 Q 1.0598169884314905 1.9891153846153846 1.0929900653545674 2.0090192307692307 Q 1.1261631422776444 2.028923076923077 1.1423169884314905 2.0623846153846155 L 1.092701603816106 2.0779615384615386 Q 1.0811631422776444 2.0566153846153847 1.0603939115084136 2.0447884615384613 Q 1.039624680739183 2.0329615384615383 1.0142400653545676 2.0329615384615383 Q 0.9865477576622598 2.0329615384615383 0.9637592961237983 2.0473846153846154 Q 0.9409708345853367 2.0618076923076925 0.9277016038161059 2.086903846153846 Q 0.9144323730468752 2.112 0.9144323730468752 2.1443076923076925 Q 0.9144323730468752 2.1760384615384614 0.9279900653545675 2.2017115384615384 Q 0.9415477576622597 2.2273846153846155 0.9643362192007213 2.242384615384615 Q 0.9871246807391829 2.2573846153846153 1.0148169884314906 2.2573846153846153 Q 1.0327016038161059 2.2573846153846153 1.0491439115084136 2.2510384615384615 Q 1.0655862192007213 2.2446923076923078 1.0779900653545675 2.234019230769231 Q 1.0903939115084136 2.223346153846154 1.0950092961237983 2.2106538461538463 L 1.1446246807391829 2.225653846153846 Q 1.1353939115084137 2.247576923076923 1.1166439115084137 2.2645961538461536 Q 1.0978939115084136 2.2816153846153844 1.0722208345853368 2.291423076923077 Q 1.0465477576622597 2.301230769230769 1.0159708345853367 2.301230769230769 M 1.3384773137019232 2.301230769230769 Q 1.3044388521634618 2.301230769230769 1.2764580829326926 2.288826923076923 Q 1.2484773137019234 2.276423076923077 1.227996544471154 2.2547884615384617 Q 1.207515775240385 2.2331538461538463 1.196265775240385 2.2048846153846156 Q 1.185015775240385 2.1766153846153844 1.185015775240385 2.1448846153846155 Q 1.185015775240385 2.1021923076923077 1.2046311598557695 2.067 Q 1.224246544471154 2.031807692307692 1.2591503906250001 2.0104615384615383 Q 1.2940542367788463 1.9891153846153846 1.3390542367788463 1.9891153846153846 Q 1.3846311598557695 1.9891153846153846 1.4183811598557694 2.01075 Q 1.4521311598557696 2.0323846153846152 1.4708811598557694 2.0672884615384617 Q 1.4896311598557694 2.1021923076923077 1.4896311598557694 2.142576923076923 Q 1.4896311598557694 2.1483461538461537 1.489342698317308 2.153826923076923 Q 1.4890542367788464 2.159307692307692 1.4884773137019234 2.1621923076923077 L 1.238669621394231 2.1621923076923077 Q 1.2409773137019233 2.1916153846153845 1.2551119290865387 2.214403846153846 Q 1.269246544471154 2.2371923076923075 1.291746544471154 2.250173076923077 Q 1.3142465444711542 2.263153846153846 1.3402080829326926 2.263153846153846 Q 1.3679003906250002 2.263153846153846 1.392419621394231 2.2493076923076925 Q 1.4169388521634618 2.2354615384615384 1.426169621394231 2.2129615384615384 L 1.4700157752403848 2.225076923076923 Q 1.4602080829326924 2.247 1.4408811598557696 2.264307692307692 Q 1.4215542367788463 2.2816153846153844 1.3953042367788464 2.291423076923077 Q 1.3690542367788463 2.301230769230769 1.3384773137019232 2.301230769230769 M 1.2369388521634617 2.127 L 1.4423234675480772 2.127 Q 1.4400157752403848 2.097576923076923 1.425592698317308 2.075076923076923 Q 1.411169621394231 2.052576923076923 1.388669621394231 2.0398846153846155 Q 1.366169621394231 2.0271923076923075 1.3390542367788463 2.0271923076923075 Q 1.3125157752403849 2.0271923076923075 1.290015775240385 2.0398846153846155 Q 1.2675157752403847 2.052576923076923 1.2533811598557694 2.075076923076923 Q 1.239246544471154 2.097576923076923 1.2369388521634617 2.127 M 1.6875123948317312 2.2954615384615384 Q 1.6875123948317312 2.2723846153846154 1.6912623948317311 2.2521923076923076 Q 1.6950123948317313 2.2319999999999998 1.705108548677885 2.2135384615384615 Q 1.715204702524039 2.195076923076923 1.7336662409855774 2.1780576923076924 Q 1.7521277794471157 2.1610384615384617 1.7815508563701927 2.1448846153846155 Q 1.798858548677885 2.135076923076923 1.816454702524039 2.1264230769230767 Q 1.8340508563701927 2.117769230769231 1.8493393179086544 2.1079615384615384 Q 1.8646277794471158 2.098153846153846 1.8738585486778851 2.086326923076923 Q 1.8830893179086543 2.0745 1.8830893179086543 2.058923076923077 Q 1.8830893179086543 2.0456538461538463 1.8753008563701927 2.03325 Q 1.8675123948317311 2.0208461538461537 1.8522239332932697 2.0130576923076924 Q 1.836935471754808 2.0052692307692306 1.8144354717548081 2.0052692307692306 Q 1.7971277794471159 2.0052692307692306 1.7829931640625005 2.0098846153846153 Q 1.7688585486778852 2.0145 1.757608548677885 2.0217115384615383 Q 1.746358548677885 2.028923076923077 1.7379931640625004 2.0367115384615384 Q 1.7296277794471158 2.0445 1.723858548677885 2.050846153846154 L 1.692127779447116 2.015076923076923 Q 1.6967431640625004 2.0098846153846153 1.7077047025240388 2.0009423076923074 Q 1.7186662409855773 1.992 1.7353970102163465 1.9827692307692306 Q 1.7521277794471157 1.9735384615384615 1.7743393179086544 1.9669038461538462 Q 1.7965508563701929 1.9602692307692307 1.8230893179086542 1.9602692307692307 Q 1.858858548677885 1.9602692307692307 1.884531625600962 1.972673076923077 Q 1.910204702524039 1.985076923076923 1.9240508563701928 2.0061346153846156 Q 1.9378970102163466 2.0271923076923075 1.9378970102163466 2.053153846153846 Q 1.9378970102163466 2.075653846153846 1.928377779447116 2.0923846153846153 Q 1.918858548677885 2.1091153846153845 1.9041470102163467 2.1218076923076925 Q 1.889435471754808 2.1345 1.8735700871394236 2.1434423076923075 Q 1.857704702524039 2.1523846153846153 1.8450123948317312 2.158730769230769 Q 1.8190508563701928 2.1714230769230767 1.8005893179086543 2.181807692307692 Q 1.7821277794471158 2.1921923076923076 1.7703008563701927 2.2022884615384615 Q 1.7584739332932697 2.2123846153846154 1.7512623948317312 2.223346153846154 Q 1.7440508563701929 2.2343076923076923 1.7405893179086542 2.2493076923076925 L 1.9442431640625004 2.2493076923076925 L 1.9442431640625004 2.2954615384615384 L 1.6875123948317312 2.2954615384615384 M 2.3001892089843756 2.1264230769230767 Q 2.3001892089843756 2.177192307692308 2.281150747445914 2.2167115384615386 Q 2.2621122859074525 2.2562307692307693 2.229227670522837 2.2787307692307692 Q 2.1963430551382217 2.301230769230769 2.154227670522837 2.301230769230769 Q 2.112112285907452 2.301230769230769 2.079227670522837 2.2787307692307692 Q 2.046343055138222 2.2562307692307693 2.02730459359976 2.2167115384615386 Q 2.0082661320612987 2.177192307692308 2.0082661320612987 2.1264230769230767 Q 2.0082661320612987 2.075653846153846 2.02730459359976 2.0361346153846154 Q 2.046343055138222 1.9966153846153847 2.079227670522837 1.973826923076923 Q 2.112112285907452 1.9510384615384615 2.154227670522837 1.9510384615384615 Q 2.1963430551382217 1.9510384615384615 2.229227670522837 1.973826923076923 Q 2.2621122859074525 1.9966153846153847 2.281150747445914 2.0361346153846154 Q 2.3001892089843756 2.075653846153846 2.3001892089843756 2.1264230769230767 M 2.2488430551382215 2.1264230769230767 Q 2.2488430551382215 2.0883461538461536 2.236727670522837 2.0595 Q 2.2246122859074524 2.030653846153846 2.2032661320612985 2.0145 Q 2.1819199782151446 1.9983461538461538 2.154227670522837 1.9983461538461538 Q 2.125958439753606 1.9983461538461538 2.1046122859074523 2.0145 Q 2.0832661320612984 2.030653846153846 2.071150747445914 2.0595 Q 2.0590353628305293 2.0883461538461536 2.0590353628305293 2.1264230769230767 Q 2.0590353628305293 2.1645 2.071150747445914 2.193057692307692 Q 2.0832661320612984 2.2216153846153848 2.1046122859074523 2.237769230769231 Q 2.125958439753606 2.2539230769230767 2.154227670522837 2.2539230769230767 Q 2.1819199782151446 2.2539230769230767 2.2032661320612985 2.237769230769231 Q 2.2246122859074524 2.2216153846153848 2.236727670522837 2.193057692307692 Q 2.2488430551382215 2.1645 2.2488430551382215 2.1264230769230767 M 2.5828894042968757 2.2493076923076925 L 2.5828894042968757 2.2954615384615384 L 2.375774019681491 2.2954615384615384 L 2.375774019681491 2.2493076923076925 L 2.457697096604568 2.2493076923076925 L 2.457697096604568 2.0243076923076924 Q 2.45250478891226 2.031230769230769 2.4415432504507217 2.039019230769231 Q 2.4305817119891833 2.0468076923076923 2.416735558143029 2.053730769230769 Q 2.4028894042968756 2.060653846153846 2.3890432504507215 2.064980769230769 Q 2.375197096604568 2.0693076923076923 2.3636586350661064 2.0693076923076923 L 2.3636586350661064 2.0208461538461537 Q 2.376350942758414 2.0208461538461537 2.3916394042968756 2.0136346153846154 Q 2.4069278658353372 2.0064230769230766 2.421350942758414 1.9966153846153847 Q 2.435774019681491 1.9868076923076923 2.445870173527645 1.9781538461538462 Q 2.455966327373799 1.9695 2.457697096604568 1.9660384615384614 L 2.5096201735276447 1.9660384615384614 L 2.5096201735276447 2.2493076923076925 L 2.5828894042968757 2.2493076923076925 M 2.925588754507212 2.1264230769230767 Q 2.925588754507212 2.177192307692308 2.9065502929687503 2.2167115384615386 Q 2.887511831430289 2.2562307692307693 2.8546272160456736 2.2787307692307692 Q 2.821742600661058 2.301230769230769 2.7796272160456734 2.301230769230769 Q 2.7375118314302886 2.301230769230769 2.7046272160456737 2.2787307692307692 Q 2.6717426006610583 2.2562307692307693 2.6527041391225965 2.2167115384615386 Q 2.633665677584135 2.177192307692308 2.633665677584135 2.1264230769230767 Q 2.633665677584135 2.075653846153846 2.6527041391225965 2.0361346153846154 Q 2.6717426006610583 1.9966153846153847 2.7046272160456737 1.973826923076923 Q 2.7375118314302886 1.9510384615384615 2.7796272160456734 1.9510384615384615 Q 2.821742600661058 1.9510384615384615 2.8546272160456736 1.973826923076923 Q 2.887511831430289 1.9966153846153847 2.9065502929687503 2.0361346153846154 Q 2.925588754507212 2.075653846153846 2.925588754507212 2.1264230769230767 M 2.874242600661058 2.1264230769230767 Q 2.874242600661058 2.0883461538461536 2.8621272160456734 2.0595 Q 2.850011831430289 2.030653846153846 2.828665677584135 2.0145 Q 2.807319523737981 1.9983461538461538 2.7796272160456734 1.9983461538461538 Q 2.7513579852764427 1.9983461538461538 2.730011831430289 2.0145 Q 2.708665677584135 2.030653846153846 2.6965502929687504 2.0595 Q 2.684434908353366 2.0883461538461536 2.684434908353366 2.1264230769230767 Q 2.684434908353366 2.1645 2.6965502929687504 2.193057692307692 Q 2.708665677584135 2.2216153846153848 2.730011831430289 2.237769230769231 Q 2.7513579852764427 2.2539230769230767 2.7796272160456734 2.2539230769230767 Q 2.807319523737981 2.2539230769230767 2.828665677584135 2.237769230769231 Q 2.850011831430289 2.2216153846153848 2.8621272160456734 2.193057692307692 Q 2.874242600661058 2.1645 2.874242600661058 2.1264230769230767" fill="#dceac6" fill-rule="nonzero"></path></g><g clip-path="url(&quot;#SvgjsClipPath1001&quot;)"><g clip-path="url(&quot;#SvgjsClipPath1000&quot;)"><path d=" M -0.9057814353310312 0.4497620184754352 L -2.7063394993915293 0.4497620184754352 L -2.7063394993915293 2.250320082535933 L -0.9057814353310312 2.250320082535933 Z M -2.80750037217273 0.3486011456942343 L -2.80750037217273 2.3514809553171343 L -0.8046205625498302 2.3514809553171343 L -0.8046205625498302 0.3486011456942343 Z" fill="#64c6c4" transform="matrix(1,0,0,1,0,0)" fill-rule="evenodd"></path></g><g clip-path="url(&quot;#SvgjsClipPath1000&quot;)"><path d=" M -0.6630136835161275 0.2069942666605316 L -2.5444866886566024 0.2069942666605316 L -2.5444866886566024 2.0884672718010067 L -0.6630136835161275 2.0884672718010067 Z M -2.6051786266103285 0.14630232870680576 L -2.6051786266103285 2.1491592097547327 L -0.6023217455624015 2.1491592097547327 L -0.6023217455624015 0.14630232870680576 Z" fill="#64c6c4" transform="matrix(1,0,0,1,0,0)" fill-rule="evenodd"></path></g><g clip-path="url(&quot;#SvgjsClipPath1000&quot;)"><path d=" M -0.44046893482747507 -0.015550482028120927 L -2.362410874795425 -0.015550482028120927 L -2.362410874795425 1.906391457939829 L -0.4404689348274755 1.906391457939829 Z M -2.4028798096229 -0.05601941685559586 L -2.4028798096229 1.946860392767304 L -0.3999999999999999 1.946860392767304 L -0.3999999999999999 -0.05601941685559586 Z" fill="#64c6c4" transform="matrix(1,0,0,1,0,0)" fill-rule="evenodd"></path></g><g clip-path="url(&quot;#SvgjsClipPath1000&quot;)"><path d=" M -2.2005580640604983 1.319695081528821 L -1.795937501510668 1.319695081528821 L -1.795937501510668 1.7243156440786513 L -2.2005580640604983 1.7243156440786513 Z" fill="#64c6c4" transform="matrix(1,0,0,1,0,0)" fill-rule="nonzero"></path></g></g></g><defs><clipPath id="SvgjsClipPath1001"><path d=" M -2.80750037217273 -0.05601941685559586 h 2.40750037217273 v 2.40750037217273 h -2.40750037217273 Z"></path></clipPath><clipPath id="SvgjsClipPath1000"><path d=" M -2.80750037217273 -0.05601941685559586 L -0.3999999999999999 -0.05601941685559586 L -0.3999999999999999 2.3514809553171343 L -2.80750037217273 2.3514809553171343 Z"></path></clipPath></defs></svg>